name analog
datacolumns 19
datarows 23
range 0.3195 0.3305
endheader
time	ground_force_vx	ground_force_vy	ground_force_vz	ground_force_px	ground_force_py	ground_force_pz	l_ground_force_vx	l_ground_force_vy	l_ground_force_vz	l_ground_force_px	l_ground_force_py	l_ground_force_pz	ground_torque_x	ground_torque_y	ground_torque_z	l_ground_torque_x	l_ground_torque_y	l_ground_torque_z
0.3195	-0.0	-0.0	-0.0	-0.5466647744178772	9.236054420471191	-274.9944152832031	12.452835083007812	-6.23766040802002	-279.45245361328125	-0.0	-0.0	-0.0	-0.0	-0.0	-0.0	69845.2578125	-207.5042724609375	1179.080322265625
0.32	-0.0	-0.0	-0.0	-1.0588912963867188	9.025419235229492	-271.0271911621094	13.14069366455078	-5.531010150909424	-276.918212890625	-0.0	-0.0	-0.0	-0.0	-0.0	-0.0	69284.921875	-83.16040802001953	1372.486572265625
0.3205	-0.0	-0.0	-0.0	-0.4797314405441284	8.790261268615723	-269.74298095703125	13.107418060302734	-5.409306049346924	-274.08404541015625	-0.0	-0.0	-0.0	-0.0	-0.0	-0.0	68409.484375	-122.07185363769533	1231.456298828125
0.321	-0.0	-0.0	-0.0	-0.9571970105171204	8.510744094848633	-268.292724609375	13.39311408996582	-4.891088962554932	-270.6394348144531	-0.0	-0.0	-0.0	-0.0	-0.0	-0.0	67545.234375	-27.08198356628418	1287.822509765625
0.3215	-0.0	-0.0	-0.0	-0.8244637846946716	8.455147743225098	-268.2828674316406	13.582136154174805	-4.504405975341797	-269.2328491210937	-0.0	-0.0	-0.0	-0.0	-0.0	-0.0	67374.9609375	-31.125282287597656	1339.3477783203125
0.322	-0.0	-0.0	-0.0	-0.5103318691253662	7.978921890258789	-265.59130859375	13.82655906677246	-4.105319499969482	-267.4501342773437	-0.0	-0.0	-0.0	-0.0	-0.0	-0.0	67110.453125	-162.36715698242188	1277.203857421875
0.3225	-0.0	-0.0	-0.0	-0.1911197304725647	7.588771343231201	-267.626220703125	14.50225830078125	-3.246795177459717	-267.7498779296875	-0.0	-0.0	-0.0	-0.0	-0.0	-0.0	67028.59375	-199.3127899169922	1296.3304443359375
0.323	-0.0	-0.0	-0.0	0.8967471122741699	7.279326915740967	-268.8026123046875	14.958303451538086	-2.275384426116944	-270.6426696777344	-0.0	-0.0	-0.0	-0.0	-0.0	-0.0	67680.96875	-347.9193115234375	1360.513671875
0.3235	-0.0	-0.0	-0.0	1.818315386772156	6.595649719238281	-272.9562072753906	16.04369354248047	-1.5977267026901243	-271.8047180175781	-0.0	-0.0	-0.0	-0.0	-0.0	-0.0	68172.515625	-456.9425354003906	1594.531005859375
0.324	-0.0	-0.0	-0.0	2.902257442474365	6.6298017501831055	-277.2759704589844	17.243860244750977	-1.101230263710022	-275.510498046875	-0.0	-0.0	-0.0	-0.0	-0.0	-0.0	68889.4140625	-721.6741333007812	1716.72900390625
0.3245	-0.0	-0.0	-0.0	4.488430976867676	6.705478668212891	-280.4784545898437	18.11764907836914	-0.706573486328125	-279.1061096191406	-0.0	-0.0	-0.0	-0.0	-0.0	-0.0	70429.1796875	-882.8171997070312	1781.1688232421875
0.325	-0.0	-0.0	-0.0	4.6732707023620605	5.752388954162598	-286.5917663574219	18.909160614013672	0.0204051285982131	-286.3584899902344	-0.0	-0.0	-0.0	-0.0	-0.0	-0.0	72044.4453125	-1083.28564453125	1950.770751953125
0.3255	-0.0	-0.0	-0.0	5.792239665985107	5.560449600219727	-291.91815185546875	19.946102142333984	0.7746310234069824	-292.58905029296875	-0.0	-0.0	-0.0	-0.0	-0.0	-0.0	73977.3046875	-1337.4993896484375	2145.570556640625
0.326	-0.0	-0.0	-0.0	6.759706974029541	5.56663179397583	-299.5208435058594	20.93574523925781	1.317054033279419	-301.8813781738281	-0.0	-0.0	-0.0	-0.0	-0.0	-0.0	76249.21875	-1585.5030517578125	2146.34814453125
0.3265	-0.0	-0.0	-0.0	8.172829627990723	4.401895999908447	-306.0702819824219	21.556720733642575	1.2564873695373535	-311.1960144042969	-0.0	-0.0	-0.0	-0.0	-0.0	-0.0	78910.3203125	-1660.07666015625	2316.02197265625
0.327	-0.0	-0.0	-0.0	9.9769868850708	3.9217376708984375	-315.6273193359375	22.72990608215332	2.2963638305664062	-321.3197021484375	-0.0	-0.0	-0.0	-0.0	-0.0	-0.0	81871.2265625	-2187.475830078125	2472.194091796875
0.3275	-0.0	-0.0	-0.0	11.864997863769531	4.04550838470459	-323.94464111328125	24.11468505859375	2.541611194610596	-331.34490966796875	-0.0	-0.0	-0.0	-0.0	-0.0	-0.0	84575.2734375	-2305.420166015625	2651.27294921875
0.328	-0.0	-0.0	-0.0	12.484796524047852	3.743476867675781	-335.9521484375	25.105152130126957	3.1943957805633545	-343.6425476074219	-0.0	-0.0	-0.0	-0.0	-0.0	-0.0	87863.0703125	-2780.836181640625	2882.936767578125
0.3285	-0.0	-0.0	-0.0	13.951652526855469	3.565216064453125	-349.3122253417969	26.401220321655277	4.258878707885742	-354.9335327148437	-0.0	-0.0	-0.0	-0.0	-0.0	-0.0	91072.4296875	-3235.81591796875	3039.06201171875
0.329	-0.0	-0.0	-0.0	15.596378326416016	3.925702810287476	-363.77532958984375	27.48504066467285	4.661765098571777	-369.6753234863281	-0.0	-0.0	-0.0	-0.0	-0.0	-0.0	95006.8515625	-3725.4384765625	3309.68359375
0.3295	-0.0	-0.0	-0.0	17.109115600585938	4.189128875732422	-379.6209106445313	29.367019653320312	5.372198581695557	-387.3606262207031	-0.0	-0.0	-0.0	-0.0	-0.0	-0.0	99560.9453125	-4211.3046875	3792.091064453125
0.33	-0.0	-0.0	-0.0	19.16439247131348	3.724334716796875	-396.9612121582031	32.08189392089844	6.147865295410156	-405.3783874511719	-0.0	-0.0	-0.0	-0.0	-0.0	-0.0	104694.203125	-4742.1494140625	4279.10986328125
0.3305	-0.0	-0.0	-0.0	21.18380355834961	3.673333168029785	-416.3699035644531	35.1135368347168	6.857357501983643	-423.5327758789063	-0.0	-0.0	-0.0	-0.0	-0.0	-0.0	109977.109375	-5386.38623046875	5034.6083984375
